HIERARCHY
ROOT mixamorig:Hips
{
	OFFSET -0.000008 104.274872 1.554316
	CHANNELS 6 Xposition Yposition Zposition Xrotation Yrotation Zrotation
	JOINT mixamorig:Spine
	{
		OFFSET -0.000005 10.181595 0.131519
		CHANNELS 6 Xposition Yposition Zposition Xrotation Yrotation Zrotation
		JOINT mixamorig:Spine1
		{
			OFFSET -0.000000 9.893959 -1.470707
			CHANNELS 6 Xposition Yposition Zposition Xrotation Yrotation Zrotation
			JOINT mixamorig:Spine2
			{
				OFFSET -0.000000 9.220757 -1.370641
				CHANNELS 6 Xposition Yposition Zposition Xrotation Yrotation Zrotation
				JOINT mixamorig:Neck
				{
					OFFSET 0.000001 16.740417 -2.049036
					CHANNELS 6 Xposition Yposition Zposition Xrotation Yrotation Zrotation
					JOINT mixamorig:Head
					{
						OFFSET 0.000000 9.617874 1.685006
						CHANNELS 6 Xposition Yposition Zposition Xrotation Yrotation Zrotation
						JOINT mixamorig:HeadTop_End
						{
							OFFSET 0.000002 22.037354 7.501101
							CHANNELS 6 Xposition Yposition Zposition Xrotation Yrotation Zrotation
							End Site
							{
								OFFSET 0.000168 2310.654297 -282.823242
							}
						}
					}
				}
				JOINT mixamorig:RightShoulder
				{
					OFFSET -4.569970 11.014908 -2.160885
					CHANNELS 6 Xposition Yposition Zposition Xrotation Yrotation Zrotation
					JOINT mixamorig:RightArm
					{
						OFFSET -10.592851 -0.524811 -2.232101
						CHANNELS 6 Xposition Yposition Zposition Xrotation Yrotation Zrotation
						JOINT mixamorig:RightForeArm
						{
							OFFSET -27.841511 0.000031 -0.000004
							CHANNELS 6 Xposition Yposition Zposition Xrotation Yrotation Zrotation
							JOINT mixamorig:RightHand
							{
								OFFSET -28.328831 -0.000015 0.000015
								CHANNELS 6 Xposition Yposition Zposition Xrotation Yrotation Zrotation
								JOINT mixamorig:RightHandThumb1
								{
									OFFSET -2.464806 -1.573990 2.681852
									CHANNELS 6 Xposition Yposition Zposition Xrotation Yrotation Zrotation
									JOINT mixamorig:RightHandThumb2
									{
										OFFSET -3.215179 -1.872803 1.924282
										CHANNELS 6 Xposition Yposition Zposition Xrotation Yrotation Zrotation
										JOINT mixamorig:RightHandThumb3
										{
											OFFSET -2.654831 -1.527969 1.512609
											CHANNELS 6 Xposition Yposition Zposition Xrotation Yrotation Zrotation
											JOINT mixamorig:RightHandThumb4
											{
												OFFSET -2.018814 -1.152008 1.108052
												CHANNELS 6 Xposition Yposition Zposition Xrotation Yrotation Zrotation
												End Site
												{
													OFFSET -188.809540 -114.533607 132.431396
												}
											}
										}
									}
								}
								JOINT mixamorig:RightHandIndex1
								{
									OFFSET -9.108284 -0.517868 2.259835
									CHANNELS 6 Xposition Yposition Zposition Xrotation Yrotation Zrotation
									JOINT mixamorig:RightHandIndex2
									{
										OFFSET -3.699989 0.000000 0.001215
										CHANNELS 6 Xposition Yposition Zposition Xrotation Yrotation Zrotation
										JOINT mixamorig:RightHandIndex3
										{
											OFFSET -2.850006 0.000031 -0.000522
											CHANNELS 6 Xposition Yposition Zposition Xrotation Yrotation Zrotation
											JOINT mixamorig:RightHandIndex4
											{
												OFFSET -2.772186 -0.000015 -0.000020
												CHANNELS 6 Xposition Yposition Zposition Xrotation Yrotation Zrotation
												End Site
												{
													OFFSET -277.218445 0.000000 -0.050231
												}
											}
										}
									}
								}
								JOINT mixamorig:RightHandMiddle1
								{
									OFFSET -9.532516 -0.000031 -0.000023
									CHANNELS 6 Xposition Yposition Zposition Xrotation Yrotation Zrotation
									JOINT mixamorig:RightHandMiddle2
									{
										OFFSET -3.700005 -0.000015 0.003713
										CHANNELS 6 Xposition Yposition Zposition Xrotation Yrotation Zrotation
										JOINT mixamorig:RightHandMiddle3
										{
											OFFSET -2.949974 0.000015 -0.002054
											CHANNELS 6 Xposition Yposition Zposition Xrotation Yrotation Zrotation
											JOINT mixamorig:RightHandMiddle4
											{
												OFFSET -2.946640 0.000000 -0.000156
												CHANNELS 6 Xposition Yposition Zposition Xrotation Yrotation Zrotation
												End Site
												{
													OFFSET -294.664337 0.000000 -0.113670
												}
											}
										}
									}
								}
								JOINT mixamorig:RightHandRing1
								{
									OFFSET -9.103600 -0.043076 -1.865134
									CHANNELS 6 Xposition Yposition Zposition Xrotation Yrotation Zrotation
									JOINT mixamorig:RightHandRing2
									{
										OFFSET -3.379288 0.000000 -0.001055
										CHANNELS 6 Xposition Yposition Zposition Xrotation Yrotation Zrotation
										JOINT mixamorig:RightHandRing3
										{
											OFFSET -2.889687 -0.000015 0.000379
											CHANNELS 6 Xposition Yposition Zposition Xrotation Yrotation Zrotation
											JOINT mixamorig:RightHandRing4
											{
												OFFSET -2.638809 -0.000015 0.000941
												CHANNELS 6 Xposition Yposition Zposition Xrotation Yrotation Zrotation
												End Site
												{
													OFFSET -263.880371 0.000000 0.516020
												}
											}
										}
									}
								}
								JOINT mixamorig:RightHandPinky1
								{
									OFFSET -8.076683 -0.486710 -3.806280
									CHANNELS 6 Xposition Yposition Zposition Xrotation Yrotation Zrotation
									JOINT mixamorig:RightHandPinky2
									{
										OFFSET -3.600014 -0.000015 -0.003747
										CHANNELS 6 Xposition Yposition Zposition Xrotation Yrotation Zrotation
										JOINT mixamorig:RightHandPinky3
										{
											OFFSET -2.099983 0.000000 -0.005739
											CHANNELS 6 Xposition Yposition Zposition Xrotation Yrotation Zrotation
											JOINT mixamorig:RightHandPinky4
											{
												OFFSET -2.115768 -0.000031 -0.003680
												CHANNELS 6 Xposition Yposition Zposition Xrotation Yrotation Zrotation
												End Site
												{
													OFFSET -211.577087 0.000000 -0.350686
												}
											}
										}
									}
								}
							}
						}
					}
				}
				JOINT mixamorig:LeftShoulder
				{
					OFFSET 4.570447 11.014725 -2.160855
					CHANNELS 6 Xposition Yposition Zposition Xrotation Yrotation Zrotation
					JOINT mixamorig:LeftArm
					{
						OFFSET 10.592371 -0.524597 -2.232119
						CHANNELS 6 Xposition Yposition Zposition Xrotation Yrotation Zrotation
						JOINT mixamorig:LeftForeArm
						{
							OFFSET 27.841532 -0.000031 0.000026
							CHANNELS 6 Xposition Yposition Zposition Xrotation Yrotation Zrotation
							JOINT mixamorig:LeftHand
							{
								OFFSET 28.328846 -0.000061 0.000022
								CHANNELS 6 Xposition Yposition Zposition Xrotation Yrotation Zrotation
								JOINT mixamorig:LeftHandThumb1
								{
									OFFSET 2.466141 -1.576172 2.681732
									CHANNELS 6 Xposition Yposition Zposition Xrotation Yrotation Zrotation
									JOINT mixamorig:LeftHandThumb2
									{
										OFFSET 3.217812 -1.872070 1.916482
										CHANNELS 6 Xposition Yposition Zposition Xrotation Yrotation Zrotation
										JOINT mixamorig:LeftHandThumb3
										{
											OFFSET 2.656029 -1.528778 1.514513
											CHANNELS 6 Xposition Yposition Zposition Xrotation Yrotation Zrotation
											JOINT mixamorig:LeftHandThumb4
											{
												OFFSET 2.020889 -1.154053 1.115139
												CHANNELS 6 Xposition Yposition Zposition Xrotation Yrotation Zrotation
												End Site
												{
													OFFSET 190.885437 -115.081749 130.048782
												}
											}
										}
									}
								}
								JOINT mixamorig:LeftHandIndex1
								{
									OFFSET 9.109314 -0.518021 2.259871
									CHANNELS 6 Xposition Yposition Zposition Xrotation Yrotation Zrotation
									JOINT mixamorig:LeftHandIndex2
									{
										OFFSET 3.699989 0.000000 -0.000322
										CHANNELS 6 Xposition Yposition Zposition Xrotation Yrotation Zrotation
										JOINT mixamorig:LeftHandIndex3
										{
											OFFSET 2.850006 0.000000 0.000352
											CHANNELS 6 Xposition Yposition Zposition Xrotation Yrotation Zrotation
											JOINT mixamorig:LeftHandIndex4
											{
												OFFSET 2.774864 -0.000031 -0.000027
												CHANNELS 6 Xposition Yposition Zposition Xrotation Yrotation Zrotation
												End Site
												{
													OFFSET 277.486267 0.000000 -0.009857
												}
											}
										}
									}
								}
								JOINT mixamorig:LeftHandMiddle1
								{
									OFFSET 9.533394 0.000061 0.000044
									CHANNELS 6 Xposition Yposition Zposition Xrotation Yrotation Zrotation
									JOINT mixamorig:LeftHandMiddle2
									{
										OFFSET 3.699989 -0.000015 -0.000231
										CHANNELS 6 Xposition Yposition Zposition Xrotation Yrotation Zrotation
										JOINT mixamorig:LeftHandMiddle3
										{
											OFFSET 2.949997 -0.000015 -0.000059
											CHANNELS 6 Xposition Yposition Zposition Xrotation Yrotation Zrotation
											JOINT mixamorig:LeftHandMiddle4
											{
												OFFSET 2.952896 0.000031 0.000063
												CHANNELS 6 Xposition Yposition Zposition Xrotation Yrotation Zrotation
												End Site
												{
													OFFSET 295.289337 0.000000 0.022810
												}
											}
										}
									}
								}
								JOINT mixamorig:LeftHandRing1
								{
									OFFSET 9.104523 -0.042999 -1.865074
									CHANNELS 6 Xposition Yposition Zposition Xrotation Yrotation Zrotation
									JOINT mixamorig:LeftHandRing2
									{
										OFFSET 3.150009 -0.000031 0.000043
										CHANNELS 6 Xposition Yposition Zposition Xrotation Yrotation Zrotation
										JOINT mixamorig:LeftHandRing3
										{
											OFFSET 2.949982 -0.000015 0.000040
											CHANNELS 6 Xposition Yposition Zposition Xrotation Yrotation Zrotation
											JOINT mixamorig:LeftHandRing4
											{
												OFFSET 2.644348 0.000000 0.000057
												CHANNELS 6 Xposition Yposition Zposition Xrotation Yrotation Zrotation
												End Site
												{
													OFFSET 264.434631 0.000000 0.012105
												}
											}
										}
									}
								}
								JOINT mixamorig:LeftHandPinky1
								{
									OFFSET 8.077789 -0.486847 -3.806259
									CHANNELS 6 Xposition Yposition Zposition Xrotation Yrotation Zrotation
									JOINT mixamorig:LeftHandPinky2
									{
										OFFSET 3.599953 0.000031 0.014727
										CHANNELS 6 Xposition Yposition Zposition Xrotation Yrotation Zrotation
										JOINT mixamorig:LeftHandPinky3
										{
											OFFSET 2.100021 0.000015 0.007705
											CHANNELS 6 Xposition Yposition Zposition Xrotation Yrotation Zrotation
											JOINT mixamorig:LeftHandPinky4
											{
												OFFSET 2.125504 0.000031 0.007517
												CHANNELS 6 Xposition Yposition Zposition Xrotation Yrotation Zrotation
												End Site
												{
													OFFSET 212.550781 0.000000 0.625752
												}
											}
										}
									}
								}
							}
						}
					}
				}
			}
		}
	}
	JOINT mixamorig:RightUpLeg
	{
		OFFSET -8.207787 -6.751648 -1.599560
		CHANNELS 6 Xposition Yposition Zposition Xrotation Yrotation Zrotation
		JOINT mixamorig:RightLeg
		{
			OFFSET -0.000002 -44.370117 0.345942
			CHANNELS 6 Xposition Yposition Zposition Xrotation Yrotation Zrotation
			JOINT mixamorig:RightFoot
			{
				OFFSET 0.000003 -44.423679 -3.043532
				CHANNELS 6 Xposition Yposition Zposition Xrotation Yrotation Zrotation
				JOINT mixamorig:RightToeBase
				{
					OFFSET -0.000002 -8.728671 10.710558
					CHANNELS 6 Xposition Yposition Zposition Xrotation Yrotation Zrotation
					JOINT mixamorig:RightToe_End
					{
						OFFSET -0.000001 -0.000679 9.278119
						CHANNELS 6 Xposition Yposition Zposition Xrotation Yrotation Zrotation
						End Site
						{
							OFFSET 0.000000 -0.067690 927.812134
						}
					}
				}
			}
		}
	}
	JOINT mixamorig:LeftUpLeg
	{
		OFFSET 8.207793 -6.751686 -1.599556
		CHANNELS 6 Xposition Yposition Zposition Xrotation Yrotation Zrotation
		JOINT mixamorig:LeftLeg
		{
			OFFSET -0.000004 -44.370014 0.346954
			CHANNELS 6 Xposition Yposition Zposition Xrotation Yrotation Zrotation
			JOINT mixamorig:LeftFoot
			{
				OFFSET -0.000001 -44.423672 -3.044401
				CHANNELS 6 Xposition Yposition Zposition Xrotation Yrotation Zrotation
				JOINT mixamorig:LeftToeBase
				{
					OFFSET -0.000002 -8.728669 10.710558
					CHANNELS 6 Xposition Yposition Zposition Xrotation Yrotation Zrotation
					JOINT mixamorig:LeftToe_End
					{
						OFFSET -0.000003 -0.000679 9.278133
						CHANNELS 6 Xposition Yposition Zposition Xrotation Yrotation Zrotation
						End Site
						{
							OFFSET 0.000000 -0.068021 927.813477
						}
					}
				}
			}
		}
	}
}
MOTION
Frames: 3
Frame Time: 0.033333
0.000006 104.270477 1.554256 0.000010 0.000003 -0.000113 -0.000005 10.181587 0.131522 0.000001 -0.000003 0.000084 -0.000000 9.893967 -1.470711 0.000001 0.000000 -0.000000 -0.000000 9.220802 -1.370642 0.000000 -0.000000 -0.000000 0.000001 16.740433 -2.049030 0.000000 -0.000000 -0.000000 0.000000 9.617859 1.685014 0.000000 0.000000 0.000000 0.000002 22.037384 7.501101 0.000000 -0.000000 0.000000 -4.569968 11.014880 -2.160881 0.000008 0.000001 -0.000038 -10.592857 -0.524656 -2.232046 71.713756 3.128347 -2.261237 -27.841526 0.000016 0.000541 -54.318152 115.290779 78.002400 -28.328819 0.000006 0.000026 -0.000323 -0.000045 0.000007 -2.464482 -1.573962 2.682408 -22.328664 -155.595001 42.967224 -3.215278 -1.872591 1.924649 158.516574 33.344666 10.210861 -2.654948 -1.527919 1.513100 153.472001 25.308103 -39.171391 -2.018837 -1.152021 1.108064 -0.000004 -0.000002 -0.000000 -9.108372 -0.517563 2.260147 103.611443 18.030057 -22.861849 -3.700078 0.000307 0.001535 101.860701 15.147186 -18.573576 -2.850095 0.000371 -0.000243 101.897898 11.383020 -14.006275 -2.772183 -0.000015 -0.000014 -0.000000 -0.000000 -0.000001 -9.532597 0.000258 0.000266 98.989262 17.622564 -20.738025 -3.700069 0.000335 0.004003 99.927293 12.319956 -14.527314 -2.950056 0.000338 -0.001758 101.700704 10.348815 -12.685588 -2.946627 0.000015 -0.000150 -0.000002 0.000000 -0.000002 -9.103684 -0.042764 -1.864852 98.872357 18.083351 -21.009595 -3.379305 0.000341 -0.000780 99.171355 7.469974 -8.787837 -2.889750 0.000362 0.000652 103.912504 4.026111 -5.199609 -2.638800 0.000001 0.000941 -0.000000 -0.000002 0.000003 -8.076742 -0.486380 -3.805987 93.360660 17.771633 -18.666927 -3.600028 0.000298 -0.003495 95.708074 6.159844 -6.424674 -2.099994 0.000338 -0.005475 98.273868 2.440287 -2.579039 -2.115779 -0.000039 -0.003674 0.000002 0.000001 -0.000005 4.570446 11.014691 -2.160851 -0.000018 0.000010 -0.000021 10.592360 -0.524544 -2.232269 70.187338 12.971844 -9.134298 27.841841 0.000111 -0.000215 103.998707 -64.210308 77.532401 28.328808 -0.000029 0.000016 0.000020 -0.000090 0.000000 2.466099 -1.576180 2.681898 -20.511333 149.801280 -41.301754 3.217741 -1.871709 1.916362 153.514212 -33.183750 -14.833817 2.656089 -1.528618 1.514435 143.079650 -27.554271 37.468775 2.020906 -1.154087 1.115149 0.000002 0.000001 0.000002 9.109370 -0.517828 2.259734 92.694287 -15.355099 16.072362 3.700030 0.000170 -0.000459 90.909367 -14.197709 14.439875 2.850057 0.000205 0.000209 90.311917 -12.461885 12.528076 2.774878 -0.000032 -0.000032 0.000001 -0.000003 -0.000002 9.533451 0.000242 -0.000098 93.922771 -13.399133 14.330627 3.700069 0.000198 -0.000388 95.013348 -13.072127 14.254306 2.950074 0.000203 -0.000183 96.795692 -16.469782 18.518361 2.952857 -0.000013 0.000070 0.000001 0.000002 0.000001 9.104573 -0.042813 -1.865221 93.247095 -12.871971 13.618075 3.150041 0.000231 -0.000098 99.503657 -12.317130 14.530614 2.950020 0.000185 -0.000057 102.958313 -13.708496 17.176196 2.644321 0.000029 0.000053 0.000002 -0.000003 -0.000001 8.077827 -0.486704 -3.806387 83.624738 -15.443160 14.351652 3.600007 0.000211 0.014556 85.656672 -12.643883 12.196062 2.100043 0.000212 0.007565 91.459812 -11.487689 12.273258 2.125498 -0.000015 0.007512 -0.000000 -0.000001 -0.000001 -8.207786 -6.751667 -1.599560 -0.077001 -0.000003 0.000080 -0.000002 -44.370110 0.345938 0.153719 -0.000000 -0.000000 0.000000 -44.423679 -3.043532 -0.076700 0.000000 -0.000002 -0.000006 -8.728667 10.710559 -0.000009 -0.000000 -0.000000 -0.000001 -0.000679 9.278123 0.000000 -0.000000 -0.000000 8.207792 -6.751710 -1.599556 -0.074518 -0.000003 0.000081 -0.000002 -44.370014 0.346960 0.148822 0.000002 0.000000 -0.000001 -44.423664 -3.044403 -0.074314 0.000000 -0.000002 -0.000004 -8.728671 10.710558 0.000007 -0.000000 -0.000000 0.000000 -0.000680 9.278137 -0.000000 0.000000 -0.000001 
0.000006 104.270477 1.554256 0.000010 0.000003 -0.000113 -0.000005 10.181587 0.131522 0.000001 -0.000003 0.000084 -0.000000 9.893967 -1.470711 0.000001 0.000000 -0.000000 -0.000000 9.220802 -1.370642 0.000000 -0.000000 -0.000000 0.000001 16.740433 -2.049030 0.000000 -0.000000 -0.000000 0.000000 9.617859 1.685014 0.000000 0.000000 0.000000 0.000002 22.037384 7.501101 0.000000 -0.000000 0.000000 -4.569968 11.014880 -2.160881 0.000008 0.000001 -0.000038 -10.592879 -0.524708 -2.231979 71.779906 14.991755 -10.877758 -27.841526 0.000013 0.000555 -53.535771 113.859882 75.528628 -28.328840 0.000007 0.000025 -0.000322 -0.000046 0.000006 -2.464409 -1.573810 2.682336 -43.437281 -158.225758 0.123295 -3.215264 -1.872520 1.924617 148.544252 33.686254 27.536181 -2.654960 -1.527869 1.513052 148.503175 27.560875 -28.304294 -2.018853 -1.152026 1.108059 -0.000004 -0.000000 0.000000 -9.108368 -0.517537 2.260146 103.972042 15.064947 -19.261330 -3.700074 0.000326 0.001531 100.852593 12.771893 -15.395258 -2.850072 0.000377 -0.000232 99.764099 10.080518 -11.949743 -2.772172 -0.000015 -0.000021 -0.000000 -0.000000 0.000001 -9.532587 0.000268 0.000274 99.052715 15.701502 -18.524183 -3.700065 0.000336 0.003987 97.577093 11.950505 -13.522758 -2.950048 0.000326 -0.001763 100.605463 10.948021 -13.161726 -2.946633 0.000015 -0.000157 0.000001 -0.000000 0.000000 -9.103704 -0.042765 -1.864851 98.664821 17.895857 -20.718170 -3.379331 0.000310 -0.000787 97.567832 8.900246 -10.174327 -2.889758 0.000347 0.000696 104.923317 6.118076 -8.015627 -2.638810 -0.000015 0.000939 0.000002 -0.000000 -0.000003 -8.076759 -0.486388 -3.805986 91.828588 19.304375 -19.759992 -3.600027 0.000284 -0.003507 93.022354 7.799239 -7.849610 -2.099987 0.000330 -0.005467 97.726811 3.462833 -3.720870 -2.115774 -0.000041 -0.003679 -0.000000 -0.000001 -0.000001 4.570446 11.014691 -2.160851 -0.000018 0.000010 -0.000021 10.592359 -0.524545 -2.232269 69.420595 13.189838 -9.157543 27.841848 0.000100 -0.000192 104.298389 -65.951241 79.717289 28.328838 -0.000044 0.000022 0.000022 -0.000089 0.000000 2.466245 -1.576086 2.681844 3.506398 161.464388 -88.366406 3.217825 -1.871717 1.916387 165.098800 -30.095040 7.897683 2.656119 -1.528646 1.514471 144.389612 -26.129520 52.121023 2.020898 -1.154070 1.115152 0.000003 0.000007 0.000009 9.109405 -0.517851 2.259742 95.274384 -20.471308 22.386285 3.700036 0.000180 -0.000478 93.244691 -13.315484 14.102076 2.850051 0.000206 0.000192 91.946709 -10.081292 10.426570 2.774866 -0.000026 -0.000032 0.000001 -0.000001 -0.000001 9.533479 0.000214 -0.000081 94.437665 -18.995092 20.485288 3.700056 0.000214 -0.000373 96.079820 -10.828937 12.032223 2.950047 0.000227 -0.000189 97.130891 -10.878137 12.316638 2.952883 -0.000030 0.000067 0.000001 0.000002 -0.000001 9.104591 -0.042838 -1.865212 93.932252 -18.027152 19.287677 3.150044 0.000236 -0.000098 97.815139 -11.107541 12.725756 2.950013 0.000214 -0.000067 99.784870 -9.896216 11.739102 2.644318 0.000030 0.000046 -0.000001 -0.000002 -0.000000 8.077850 -0.486706 -3.806399 84.115760 -19.512961 18.183072 3.600012 0.000209 0.014562 86.435969 -15.651573 15.208731 2.100036 0.000219 0.007550 88.626779 -11.693288 11.887149 2.125503 0.000012 0.007511 0.000001 0.000002 0.000000 -8.207786 -6.751667 -1.599560 -0.077001 -0.000003 0.000080 -0.000002 -44.370110 0.345938 0.153719 -0.000000 -0.000000 0.000000 -44.423679 -3.043532 -0.076700 0.000000 -0.000002 -0.000006 -8.728667 10.710559 -0.000009 -0.000000 -0.000000 -0.000001 -0.000679 9.278123 0.000000 -0.000000 -0.000000 8.207792 -6.751710 -1.599556 -0.074518 -0.000003 0.000081 -0.000002 -44.370014 0.346960 0.148822 0.000002 0.000000 -0.000001 -44.423664 -3.044403 -0.074314 0.000000 -0.000002 -0.000004 -8.728671 10.710558 0.000007 -0.000000 -0.000000 0.000000 -0.000680 9.278137 -0.000000 0.000000 -0.000001 
0.000006 104.270477 1.554256 0.000010 0.000003 -0.000113 -0.000005 10.181587 0.131522 0.000001 -0.000003 0.000084 -0.000000 9.893967 -1.470711 0.000001 0.000000 -0.000000 -0.000000 9.220802 -1.370642 0.000000 -0.000000 -0.000000 0.000001 16.740433 -2.049030 0.000000 -0.000000 -0.000000 0.000000 9.617859 1.685014 0.000000 0.000000 0.000000 0.000002 22.037384 7.501101 0.000000 -0.000000 0.000000 -4.569968 11.014880 -2.160881 0.000008 0.000001 -0.000038 -10.592882 -0.524743 -2.231946 71.276439 22.995042 -16.593996 -27.841528 0.000010 0.000544 -52.523998 110.186224 70.528151 -28.328815 0.000019 0.000024 -0.000318 -0.000042 0.000005 -2.464408 -1.573801 2.682340 -44.330964 -158.804098 -1.834543 -3.215265 -1.872524 1.924611 147.907241 33.681866 29.134548 -2.654957 -1.527855 1.513065 148.676238 27.684992 -26.920221 -2.018824 -1.151985 1.108066 -0.000002 -0.000004 0.000007 -9.108385 -0.517555 2.260139 104.766052 14.318821 -18.575623 -3.700066 0.000321 0.001522 101.621303 11.788796 -14.406088 -2.850076 0.000377 -0.000246 100.114194 9.105238 -10.862390 -2.772163 -0.000016 -0.000019 -0.000001 -0.000001 0.000000 -9.532591 0.000278 0.000261 99.364055 14.485289 -17.199157 -3.700063 0.000338 0.003978 97.785544 10.820305 -12.282127 -2.950056 0.000347 -0.001786 100.109256 10.246424 -12.212708 -2.946633 0.000000 -0.000161 -0.000002 0.000000 0.000000 -9.103709 -0.042758 -1.864838 98.880485 16.681525 -19.388832 -3.379327 0.000338 -0.000790 97.970792 8.175310 -9.414218 -2.889740 0.000361 0.000677 104.836539 5.793121 -7.581394 -2.638808 -0.000016 0.000946 0.000001 -0.000001 -0.000001 -8.076759 -0.486383 -3.805988 92.205887 18.064197 -18.603473 -3.600041 0.000288 -0.003500 92.506074 7.070624 -7.021991 -2.099991 0.000337 -0.005483 96.845095 3.164425 -3.328449 -2.115785 -0.000045 -0.003677 0.000003 -0.000001 -0.000005 4.570446 11.014691 -2.160851 -0.000018 0.000010 -0.000021 10.592358 -0.524542 -2.232279 68.705631 9.805331 -6.710655 27.841831 0.000094 -0.000190 105.112336 -67.717706 82.446626 28.328833 -0.000029 0.000024 0.000021 -0.000089 -0.000000 2.466247 -1.576025 2.681835 13.587913 166.753154 -105.342718 3.217849 -1.871784 1.916381 166.978331 -27.086952 19.509829 2.656105 -1.528617 1.514458 146.792076 -25.778293 47.873872 2.020887 -1.154080 1.115145 0.000002 0.000004 0.000004 9.109392 -0.517840 2.259757 100.436900 -21.043651 25.134792 3.700042 0.000202 -0.000446 97.379960 -13.212777 15.034182 2.850055 0.000229 0.000223 95.919208 -9.919777 10.993721 2.774890 -0.000030 -0.000026 0.000000 0.000003 -0.000001 9.533472 0.000228 -0.000086 95.427284 -19.359753 21.234365 3.700044 0.000222 -0.000378 97.351533 -10.242095 11.636351 2.950052 0.000234 -0.000210 97.950233 -9.663317 11.101472 2.952852 -0.000028 0.000060 0.000001 -0.000001 -0.000000 9.104592 -0.042835 -1.865210 93.713535 -18.852343 20.092779 3.150059 0.000213 -0.000095 98.170842 -11.720173 13.509706 2.950009 0.000223 -0.000090 98.893913 -9.403858 10.982872 2.644309 0.000047 0.000051 -0.000001 0.000001 0.000000 8.077846 -0.486713 -3.806385 83.427236 -20.121585 18.517073 3.600010 0.000190 0.014575 83.595348 -16.550593 15.289886 2.100035 0.000206 0.007544 84.175805 -11.936732 11.224234 2.125509 0.000002 0.007507 -0.000001 -0.000002 -0.000002 -8.207786 -6.751667 -1.599560 -0.077001 -0.000003 0.000080 -0.000002 -44.370110 0.345938 0.153719 -0.000000 -0.000000 0.000000 -44.423679 -3.043532 -0.076700 0.000000 -0.000002 -0.000006 -8.728667 10.710559 -0.000009 -0.000000 -0.000000 -0.000001 -0.000679 9.278123 0.000000 -0.000000 -0.000000 8.207792 -6.751710 -1.599556 -0.074518 -0.000003 0.000081 -0.000002 -44.370014 0.346960 0.148822 0.000002 0.000000 -0.000001 -44.423664 -3.044403 -0.074314 0.000000 -0.000002 -0.000004 -8.728671 10.710558 0.000007 -0.000000 -0.000000 0.000000 -0.000680 9.278137 -0.000000 0.000000 -0.000001 
